<?xml version="1.0" standalone="no"?>
<!DOCTYPE svg PUBLIC "-//W3C//DTD SVG 20010904//EN"
 "http://www.w3.org/TR/2001/REC-SVG-20010904/DTD/svg10.dtd">
<svg version="1.0" xmlns="http://www.w3.org/2000/svg"
 width="700.000000pt" height="700.000000pt" viewBox="0 0 700.000000 700.000000"
 preserveAspectRatio="xMidYMid meet">
<metadata>
Created by potrace 1.14, written by Peter Selinger 2001-2017
</metadata>
<g transform="translate(0.000000,700.000000) scale(0.100000,-0.100000)"
fill="#000000" stroke="none">
<path d="M5977 6149 c17 -42 18 -187 21 -2659 2 -1918 0 -2631 -8 -2675 -29
-151 -140 -260 -291 -285 -89 -14 -4189 -14 -4278 1 -35 5 -82 19 -105 29
l-41 19 35 -30 c51 -44 128 -77 206 -89 47 -7 728 -10 2154 -8 l2085 3 59 22
c116 45 192 124 233 244 17 52 18 161 21 2619 1 1526 -1 2592 -7 2632 -10 72
-52 177 -82 204 -19 17 -19 17 -2 -27z"/>
<path d="M1550 4938 c0 -101 3 -294 7 -430 l6 -248 434 0 433 0 0 430 0 430
-440 0 -440 0 0 -182z"/>
<path d="M2595 5108 c-2 -7 -1 -200 3 -428 l7 -415 435 0 435 0 -1 23 c0 12
-1 204 -2 427 l-2 405 -435 0 c-340 0 -437 -3 -440 -12z"/>
<path d="M3642 4693 l3 -428 429 -3 c237 -1 433 1 438 6 4 4 4 197 1 430 l-6
422 -434 0 -433 0 2 -427z"/>
<path d="M4682 4693 l3 -428 435 0 435 0 3 95 c2 52 0 245 -3 428 l-7 332
-434 0 -434 0 2 -427z"/>
<path d="M1560 3605 l0 -425 440 0 440 0 -2 423 -3 422 -437 3 -438 2 0 -425z"/>
<path d="M2600 3666 c0 -199 3 -391 6 -425 l7 -61 433 0 434 0 0 425 0 425
-440 0 -440 0 0 -364z"/>
<path d="M3640 3838 c0 -106 3 -298 7 -425 l6 -233 434 0 433 0 0 425 0 425
-440 0 -440 0 0 -192z"/>
<path d="M4683 3828 c4 -112 7 -303 7 -425 l0 -223 434 0 c239 0 436 3 438 8
2 4 2 195 0 425 l-3 417 -441 0 -441 0 6 -202z"/>
<path d="M1570 2515 l0 -425 442 0 441 0 -6 263 c-4 144 -7 335 -7 425 l0 162
-435 0 -435 0 0 -425z"/>
<path d="M2610 2515 l0 -425 440 0 440 0 0 243 c0 134 -3 326 -7 425 l-6 182
-434 0 -433 0 0 -425z"/>
<path d="M3650 2555 l0 -385 183 0 c101 0 299 -3 440 -7 l257 -6 0 391 0 392
-440 0 -440 0 0 -385z"/>
<path d="M4690 2603 c0 -186 3 -362 6 -390 l7 -53 433 0 434 0 0 390 0 390
-440 0 -440 0 0 -337z"/>
<path d="M1570 1743 c0 -65 3 -256 7 -425 l6 -308 434 0 433 0 0 425 0 425
-440 0 -440 0 0 -117z"/>
<path d="M2617 1853 c-2 -5 -2 -196 1 -425 l4 -418 441 0 440 0 -6 122 c-4 66
-7 258 -7 425 l0 303 -434 0 c-239 0 -437 -3 -439 -7z"/>
</g>
</svg>
